<svg width="114" height="55" viewBox="0 0 114 55" fill="none" xmlns="http://www.w3.org/2000/svg">
<path d="M47 45.3966L68 32V41.7759L64.6842 50.4655L54.3684 53L47 45.3966Z" fill="#C9F7F4"/>
<path d="M68 45.3966L47 32V41.7759L50.3158 50.4655L60.6316 53L68 45.3966Z" fill="#9FE9E4"/>
<path d="M14.16 54.48C11.824 54.48 9.76 54.16 7.968 53.52C6.176 52.848 4.464 51.776 2.832 50.304C2.16 49.728 1.824 49.072 1.824 48.336C1.824 47.76 2.048 47.248 2.496 46.8C2.944 46.32 3.472 46.08 4.08 46.08C4.624 46.08 5.088 46.256 5.472 46.608C6.752 47.792 8.064 48.672 9.408 49.248C10.784 49.792 12.336 50.064 14.064 50.064C16.08 50.064 17.776 49.6 19.152 48.672C20.56 47.744 21.264 46.576 21.264 45.168C21.232 43.504 20.528 42.224 19.152 41.328C17.808 40.4 15.744 39.632 12.96 39.024C9.664 38.352 7.12 37.248 5.328 35.712C3.568 34.176 2.688 32.048 2.688 29.328C2.688 27.44 3.184 25.792 4.176 24.384C5.168 22.944 6.544 21.84 8.304 21.072C10.064 20.304 12.048 19.92 14.256 19.92C16.24 19.92 18.112 20.24 19.872 20.88C21.632 21.52 23.056 22.368 24.144 23.424C24.88 24.064 25.248 24.752 25.248 25.488C25.248 26.064 25.024 26.576 24.576 27.024C24.16 27.472 23.648 27.696 23.04 27.696C22.592 27.696 22.224 27.568 21.936 27.312C21.104 26.48 19.952 25.776 18.48 25.2C17.008 24.624 15.6 24.336 14.256 24.336C12.112 24.336 10.4 24.784 9.12 25.68C7.872 26.544 7.248 27.696 7.248 29.136C7.248 30.704 7.872 31.904 9.12 32.736C10.4 33.568 12.288 34.272 14.784 34.848C17.28 35.392 19.312 36.032 20.88 36.768C22.48 37.504 23.712 38.528 24.576 39.84C25.44 41.152 25.872 42.864 25.872 44.976C25.872 46.832 25.344 48.48 24.288 49.92C23.264 51.36 21.856 52.48 20.064 53.28C18.272 54.08 16.304 54.48 14.16 54.48ZM36.6735 51.648C36.6735 52.32 36.4335 52.88 35.9535 53.328C35.4735 53.776 34.9135 54 34.2735 54C33.5695 54 32.9935 53.776 32.5455 53.328C32.1295 52.88 31.9215 52.32 31.9215 51.648V22.704C31.9215 22.064 32.1455 21.52 32.5935 21.072C33.0415 20.624 33.6175 20.4 34.3215 20.4C34.9615 20.4 35.5055 20.624 35.9535 21.072C36.4335 21.52 36.6735 22.064 36.6735 22.704V51.648ZM68.4326 20.352C69.1046 20.352 69.6326 20.576 70.0166 21.024C70.4326 21.44 70.6406 21.984 70.6406 22.656V41.088C70.6406 43.616 70.0806 45.888 68.9606 47.904C67.8406 49.92 66.2886 51.504 64.3046 52.656C62.3526 53.776 60.1446 54.336 57.6806 54.336C55.1846 54.336 52.9446 53.776 50.9606 52.656C48.9766 51.504 47.4246 49.92 46.3046 47.904C45.1846 45.888 44.6246 43.616 44.6246 41.088V22.656C44.6246 21.984 44.8486 21.44 45.2966 21.024C45.7446 20.576 46.3206 20.352 47.0246 20.352C47.6326 20.352 48.1606 20.576 48.6086 21.024C49.0886 21.472 49.3286 22.016 49.3286 22.656V41.088C49.3286 42.752 49.7126 44.256 50.4806 45.6C51.2486 46.912 52.2726 47.936 53.5526 48.672C54.8326 49.408 56.2086 49.776 57.6806 49.776C59.2166 49.776 60.6406 49.408 61.9526 48.672C63.2646 47.936 64.3046 46.912 65.0726 45.6C65.8726 44.256 66.2726 42.752 66.2726 41.088V22.656C66.2726 21.984 66.4646 21.44 66.8486 21.024C67.2326 20.576 67.7606 20.352 68.4326 20.352ZM86.0123 54.48C84.1243 54.48 82.3803 54.032 80.7803 53.136C79.2123 52.24 77.9643 51.008 77.0363 49.44C76.7483 48.992 76.6043 48.56 76.6043 48.144C76.6043 47.536 76.8443 47.024 77.3242 46.608C77.8043 46.16 78.3003 45.936 78.8123 45.936C79.5163 45.936 80.2363 46.336 80.9723 47.136C82.2203 48.992 83.9003 49.92 86.0123 49.92C87.7723 49.92 89.2603 49.328 90.4763 48.144C91.6923 46.96 92.3003 45.504 92.3003 43.776V22.704C92.3003 22.064 92.5403 21.52 93.0203 21.072C93.5003 20.624 94.0603 20.4 94.7003 20.4C95.4043 20.4 95.9643 20.624 96.3803 21.072C96.8283 21.488 97.0523 22.032 97.0523 22.704V43.776C97.0523 45.728 96.5723 47.52 95.6123 49.152C94.6523 50.784 93.3243 52.08 91.6283 53.04C89.9643 54 88.0923 54.48 86.0123 54.48ZM109.752 51.648C109.752 52.32 109.512 52.88 109.032 53.328C108.552 53.776 107.992 54 107.352 54C106.648 54 106.072 53.776 105.624 53.328C105.208 52.88 105 52.32 105 51.648V22.704C105 22.064 105.224 21.52 105.672 21.072C106.12 20.624 106.696 20.4 107.4 20.4C108.04 20.4 108.584 20.624 109.032 21.072C109.512 21.52 109.752 22.064 109.752 22.704V51.648Z" fill="#4CC5BD"/>
<path d="M39.5053 10.6594C38.8316 10.2952 38.8316 9.70476 39.5053 9.34055L56.28 0.273152C56.9538 -0.0910507 58.0462 -0.0910506 58.72 0.273152L75.4947 9.34055C76.1684 9.70476 76.1684 10.2952 75.4947 10.6594L58.72 19.7268C58.0462 20.091 56.9538 20.091 56.28 19.7268L39.5053 10.6594Z" fill="#4CC5BD"/>
<path fill-rule="evenodd" clip-rule="evenodd" d="M78.4999 8.65002C79.4998 8.65002 79.5 9.70213 79.5 11L80.8499 39C80.8499 40.2979 79.7978 41.35 78.4999 41.35C77.202 41.35 76.1499 40.2979 76.1499 39L77.5 11C77.5 9.70213 77.5 8.65002 78.4999 8.65002Z" fill="#4CC5BD"/>
<circle cx="78.5" cy="9.5" r="3.5" fill="#4CC5BD"/>
</svg>
