<svg width="158" height="42" viewBox="0 0 158 42" fill="none" xmlns="http://www.w3.org/2000/svg">
<path d="M1.83743 13.0602C-0.00693628 16.9517 -0.479796 21.3528 0.495827 25.5473C1.47145 29.7417 3.83811 33.4824 7.21053 36.1604C10.5387 38.8033 14.6529 40.2576 18.8994 40.2954C18.9173 40.2959 18.9354 40.2961 18.9534 40.2961H20.687C20.7266 40.2961 20.7659 40.2949 20.8049 40.2924C21.6966 40.2643 22.5765 40.075 23.4019 39.7331C24.2993 39.3614 25.1146 38.8166 25.8015 38.1298C26.4883 37.4429 27.0331 36.6276 27.4048 35.7302C27.7765 34.8328 27.9678 33.871 27.9678 32.8997C27.9678 31.9284 27.7765 30.9666 27.4048 30.0692C27.0331 29.1718 26.4883 28.3564 25.8015 27.6696C25.1146 26.9828 24.2993 26.438 23.4019 26.0663C22.796 25.8153 21.9446 25.6908 21.3446 25.6219C20.6765 25.5452 19.9817 25.5032 19.5313 25.5032C19.4728 25.5032 19.415 25.506 19.358 25.5113C19.3009 25.5059 19.243 25.5032 19.1846 25.5032C18.8897 25.5032 18.1209 25.4713 17.3371 25.4035C16.9495 25.37 16.5853 25.33 16.2921 25.2855C16.0836 25.2538 15.9695 25.2281 15.9246 25.218C15.9092 25.2146 15.9017 25.2135 15.9017 25.2135C15.9017 25.2135 15.9038 25.2149 15.9081 25.2167C15.4642 25.031 15.0607 24.7604 14.7204 24.42C14.377 24.0766 14.1046 23.669 13.9187 23.2203C13.7329 22.7716 13.6372 22.2907 13.6372 21.805C13.6372 21.3194 13.7329 20.8385 13.9187 20.3898C14.1046 19.9411 14.377 19.5334 14.7204 19.19C15.0638 18.8466 15.4715 18.5742 15.9202 18.3883C16.3689 18.2025 16.8498 18.1068 17.3355 18.1068L17.3417 18.1068H23.6918C24.713 18.1068 25.5409 17.2789 25.5409 16.2577C25.5409 15.2364 24.713 14.4086 23.6918 14.4086H17.2199C17.1803 14.4086 17.141 14.4098 17.102 14.4123C16.2103 14.4404 15.3304 14.6297 14.505 14.9716C13.6076 15.3433 12.7922 15.8881 12.1054 16.5749C11.4186 17.2618 10.8737 18.0771 10.502 18.9745C10.1303 19.8719 9.93901 20.8337 9.93901 21.805C9.93901 22.7763 10.1303 23.7381 10.502 24.6355C10.8737 25.5329 11.4186 26.3483 12.1054 27.0351C12.7922 27.7219 13.6076 28.2667 14.505 28.6384C14.903 28.8033 15.3922 28.8895 15.7373 28.9418C16.1382 29.0027 16.5883 29.0508 17.0185 29.088C17.8702 29.1616 18.751 29.2015 19.1846 29.2015C19.243 29.2015 19.3008 29.1987 19.3579 29.1934C19.4149 29.1987 19.4728 29.2015 19.5313 29.2015C19.8093 29.2015 20.3595 29.2313 20.9225 29.296C21.1994 29.3278 21.4557 29.3654 21.6661 29.4062C21.8748 29.4468 21.9704 29.4777 21.9848 29.4824C21.9865 29.483 21.9866 29.483 21.9866 29.483C22.4353 29.6688 22.843 29.9412 23.1864 30.2846C23.5298 30.6281 23.8022 31.0357 23.9881 31.4844C24.174 31.9331 24.2696 32.414 24.2696 32.8997C24.2696 33.3853 24.174 33.8662 23.9881 34.3149C23.8022 34.7636 23.5298 35.1713 23.1864 35.5147C22.843 35.8581 22.4353 36.1305 21.9866 36.3164C21.538 36.5022 21.057 36.5979 20.5714 36.5979C20.569 36.5979 20.5666 36.5979 20.5642 36.5979H19.0778L19.069 36.5979C15.5978 36.5979 12.2287 35.4229 9.51035 33.2643C6.79197 31.1056 4.8843 28.0904 4.09789 24.7094C3.31148 21.3285 3.69263 17.7809 5.17931 14.6441C6.66598 11.5074 9.17062 8.9662 12.2855 7.43427C15.4004 5.90234 18.9421 5.46987 22.3341 6.20725C25.7261 6.94463 28.7687 8.80845 30.9664 11.4953C33.1642 14.1821 34.3878 17.5338 34.4381 21.0046C34.4884 24.4755 33.3623 27.8612 31.2432 30.6105C30.6198 31.4194 30.7701 32.5805 31.579 33.2039C32.3878 33.8273 33.5489 33.677 34.1724 32.8682C36.8013 29.4573 38.1983 25.257 38.1359 20.9511C38.0736 16.6452 36.5556 12.4871 33.829 9.15378C31.1024 5.82048 27.3279 3.50823 23.1197 2.59344C18.9116 1.67864 14.5178 2.21517 10.6534 4.11568C6.78907 6.01619 3.6818 9.16877 1.83743 13.0602Z" fill="#008A85"/>
<path d="M56.4201 30.6126C55.5096 30.6126 54.6234 30.5545 53.7613 30.4383C52.909 30.3221 52.1051 30.1477 51.3496 29.9153V26.5155C52.1147 26.748 52.9235 26.9272 53.7759 27.0531C54.6282 27.1693 55.4902 27.2274 56.362 27.2274C57.408 27.2274 58.1442 27.0918 58.5703 26.8206C59.0062 26.5398 59.2241 26.1523 59.2241 25.6583C59.2241 25.2612 59.1176 24.961 58.9045 24.7576C58.6914 24.5542 58.3185 24.3992 57.7858 24.2926L55.1997 23.8277C53.7081 23.5468 52.6232 23.0286 51.9452 22.2731C51.2672 21.5177 50.9282 20.5055 50.9282 19.2366C50.9282 17.716 51.5384 16.4907 52.7588 15.5609C53.9889 14.631 55.8728 14.1661 58.4105 14.1661C59.1854 14.1661 59.936 14.2097 60.6625 14.2969C61.3986 14.384 62.0621 14.5051 62.6529 14.6601V18.0598C62.033 17.8855 61.3744 17.7547 60.677 17.6675C59.9796 17.5804 59.2677 17.5368 58.5413 17.5368C57.6599 17.5368 56.9819 17.6143 56.5073 17.7692C56.0327 17.9145 55.6985 18.1082 55.5048 18.3504C55.3207 18.5925 55.2287 18.8541 55.2287 19.1349C55.2287 19.4739 55.3353 19.75 55.5484 19.9631C55.7614 20.1762 56.1295 20.3408 56.6525 20.4571L59.2387 20.922C60.6528 21.1835 61.7182 21.6678 62.435 22.3749C63.1614 23.0722 63.5246 24.1135 63.5246 25.4985C63.5246 27.0773 62.9047 28.3268 61.665 29.2469C60.4349 30.1574 58.6866 30.6126 56.4201 30.6126Z" fill="#21383E"/>
<path d="M72.9903 30.6126C71.4019 30.6126 70.0265 30.3124 68.8642 29.7119C67.7116 29.1017 66.8205 28.1912 66.1909 26.9805C65.5613 25.76 65.2465 24.2345 65.2465 22.4039C65.2465 20.5539 65.5516 19.0187 66.1618 17.7983C66.7817 16.5779 67.668 15.6674 68.8206 15.0669C69.9829 14.4664 71.3728 14.1661 72.9903 14.1661C74.6079 14.1661 75.9929 14.4712 77.1456 15.0814C78.3079 15.6819 79.1941 16.5924 79.8043 17.8128C80.4242 19.0236 80.7342 20.5442 80.7342 22.3749C80.7342 24.2152 80.4194 25.7455 79.7898 26.9659C79.1602 28.1863 78.2643 29.1017 77.102 29.7119C75.9494 30.3124 74.5788 30.6126 72.9903 30.6126ZM72.9903 27.0967C73.6393 27.0967 74.1914 26.9562 74.6466 26.6754C75.1115 26.3945 75.4651 25.915 75.7072 25.237C75.9494 24.5493 76.0704 23.6098 76.0704 22.4184C76.0704 21.198 75.9494 20.244 75.7072 19.5563C75.4651 18.8686 75.1115 18.3843 74.6466 18.1034C74.1914 17.8128 73.6393 17.6675 72.9903 17.6675C72.3414 17.6675 71.7845 17.808 71.3195 18.0889C70.8643 18.3698 70.5156 18.8541 70.2735 19.5417C70.0313 20.2198 69.9102 21.1593 69.9102 22.3603C69.9102 23.5807 70.0313 24.5348 70.2735 25.2225C70.5156 25.9102 70.8643 26.3945 71.3195 26.6754C71.7845 26.9562 72.3414 27.0967 72.9903 27.0967Z" fill="#21383E"/>
<path d="M83.4528 30.3075V14.4131H87.2739L87.579 16.0403H87.7969C88.3587 15.4204 89.0125 14.9555 89.7583 14.6456C90.5138 14.3259 91.3468 14.1661 92.2573 14.1661C93.1968 14.1661 94.0394 14.3695 94.7853 14.7763C95.5407 15.1734 96.1316 15.8224 96.5578 16.7232C96.9936 17.6143 97.2116 18.7959 97.2116 20.2682V30.3075H92.6786V20.6605C92.6786 19.7112 92.4994 19.0575 92.141 18.6991C91.7923 18.331 91.308 18.147 90.6882 18.147C90.3782 18.147 90.0586 18.1954 89.7293 18.2923C89.4096 18.3891 89.1045 18.5344 88.8139 18.7281C88.5331 18.9219 88.2861 19.1688 88.073 19.4691V30.3075H83.4528ZM101.715 30.3075V20.6605C101.715 19.7112 101.522 19.0575 101.134 18.6991C100.747 18.331 100.248 18.147 99.6379 18.147C99.2989 18.147 98.9598 18.2003 98.6208 18.3068C98.2915 18.4037 97.9767 18.5586 97.6765 18.7717C97.3762 18.9848 97.1147 19.2609 96.8919 19.5999L95.9766 16.5924C96.6837 15.7304 97.4828 15.1105 98.3739 14.7327C99.2649 14.355 100.161 14.1661 101.062 14.1661C102.079 14.1661 102.984 14.3695 103.779 14.7763C104.573 15.1831 105.198 15.8466 105.653 16.7668C106.108 17.6869 106.336 18.9025 106.336 20.4135V30.3075H101.715Z" fill="#21383E"/>
<path d="M117.678 30.6126C115.683 30.6126 114.041 30.3269 112.753 29.7554C111.465 29.184 110.506 28.288 109.876 27.0676C109.256 25.8472 108.946 24.2733 108.946 22.3458C108.946 20.5927 109.232 19.1059 109.803 17.8855C110.385 16.6651 111.222 15.7401 112.317 15.1105C113.421 14.4809 114.758 14.1661 116.327 14.1661C117.828 14.1661 119.092 14.4857 120.119 15.125C121.146 15.7546 121.92 16.6893 122.443 17.9291C122.966 19.1688 123.228 20.6895 123.228 22.4911V23.697H111.59V21.0382H119.654L118.913 21.3143C118.913 20.2682 118.816 19.4352 118.622 18.8153C118.429 18.1954 118.133 17.7547 117.736 17.4932C117.349 17.2317 116.864 17.1009 116.283 17.1009C115.692 17.1009 115.194 17.2317 114.787 17.4932C114.39 17.7547 114.085 18.1954 113.871 18.8153C113.668 19.4255 113.566 20.2537 113.566 21.2997V23.1594C113.566 24.1377 113.707 24.9174 113.988 25.4985C114.278 26.07 114.767 26.4816 115.455 26.7335C116.152 26.9853 117.111 27.1112 118.332 27.1112C118.952 27.1112 119.601 27.0676 120.279 26.9805C120.966 26.8836 121.654 26.7577 122.342 26.6027V30.0751C121.499 30.2688 120.695 30.4044 119.93 30.4819C119.174 30.5691 118.424 30.6126 117.678 30.6126Z" fill="#21383E"/>
<path d="M130.078 30.5981C128.451 30.5981 127.182 30.1768 126.271 29.3341C125.371 28.4818 124.92 27.3727 124.92 26.007C124.92 24.5057 125.438 23.3337 126.475 22.4911C127.521 21.6484 129.206 21.1496 131.531 20.9946L134.872 20.7186L135.366 23.2756L131.996 23.5517C131.105 23.6195 130.46 23.8229 130.063 24.1619C129.676 24.5009 129.482 24.9658 129.482 25.5566C129.482 26.1378 129.661 26.5882 130.02 26.9078C130.378 27.2178 130.901 27.3727 131.589 27.3727C132.015 27.3727 132.451 27.3001 132.896 27.1548C133.342 26.9998 133.749 26.7383 134.117 26.3703V20.5588C134.117 19.8323 133.996 19.2609 133.754 18.8444C133.521 18.4279 133.139 18.1325 132.606 17.9581C132.083 17.7741 131.381 17.6821 130.499 17.6821C129.889 17.6821 129.196 17.7353 128.422 17.8419C127.647 17.9387 126.906 18.0986 126.199 18.3213V14.8344C126.974 14.6117 127.821 14.447 128.741 14.3405C129.671 14.2242 130.533 14.1661 131.327 14.1661C133.013 14.1661 134.393 14.3744 135.468 14.7908C136.553 15.2073 137.352 15.9047 137.865 16.883C138.379 17.8516 138.635 19.1737 138.635 20.8493V30.3075H134.829L134.509 28.7239H134.291C133.817 29.3729 133.211 29.8475 132.475 30.1477C131.739 30.448 130.94 30.5981 130.078 30.5981Z" fill="#21383E"/>
<path d="M141.965 30.3075V6.8291H146.585V16.0113H146.818C147.36 15.4107 147.999 14.9555 148.735 14.6456C149.472 14.3259 150.295 14.1661 151.205 14.1661C152.174 14.1661 153.05 14.3695 153.835 14.7763C154.62 15.1831 155.239 15.8466 155.695 16.7668C156.16 17.6772 156.392 18.888 156.392 20.3989V30.3075H151.757V20.704C151.757 19.7355 151.554 19.072 151.147 18.7136C150.75 18.3455 150.208 18.1615 149.52 18.1615C149.171 18.1615 148.818 18.2099 148.459 18.3068C148.101 18.394 147.757 18.5344 147.428 18.7281C147.108 18.9219 146.827 19.164 146.585 19.4546V30.3075H141.965Z" fill="#21383E"/>
</svg>
